<?xml version="1.0" encoding="UTF-8" standalone="no"?>
<!DOCTYPE svg PUBLIC "-//W3C//DTD SVG 1.1//EN" "http://www.w3.org/Graphics/SVG/1.1/DTD/svg11.dtd">
<svg width="100%" height="100%" viewBox="0 0 942 394" version="1.1" xmlns="http://www.w3.org/2000/svg" xmlns:xlink="http://www.w3.org/1999/xlink" xml:space="preserve" xmlns:serif="http://www.serif.com/" style="fill-rule:evenodd;clip-rule:evenodd;stroke-linejoin:round;stroke-miterlimit:2;">
    <g id="Image-1" serif:id="Image 1" transform="matrix(1,0,0,1,-228,-424)">
        <path id="path81-3" d="M496.964,621.353C496.602,603.817 488.181,585.18 479.36,570.353C431.928,490.622 311.462,478.856 246.964,543.353L246.964,544.353C251.034,548.423 259.901,561.144 265.964,561.146C271.37,561.148 280.321,550.433 284.964,547.357C297.341,539.157 311.345,533.452 325.964,530.816C371.764,522.558 418.805,539.015 447.31,576.353C456.839,588.835 466.265,606.332 466.964,622.353C446.235,626.105 440.475,653.278 449.841,669.353C452.511,673.936 463,679.681 463.267,684.457C463.98,697.183 448.369,715.509 440.675,724.353C412.472,756.768 365.462,769.967 323.964,761.142C309.567,758.081 296.258,752.56 283.964,744.491C279.506,741.565 271.17,731.558 265.964,731.56C261.022,731.562 251.903,742.467 249.391,746.349C245.427,752.474 257.83,760.091 261.964,763.222C279.228,776.297 298.914,783.543 319.964,787.753C378.683,799.495 443.317,777.37 476.62,726.353C484.906,713.659 493.621,697.737 494.964,682.353L523.964,681.353L523.964,790.353L861.964,790.353L861.964,678.353C869.714,682.024 892.228,679.045 893.65,682.366C895.958,687.756 898.929,698.667 901.389,703.353C906.85,717.82 914.588,731.402 924.428,743.353C950.013,774.43 990.021,792.564 1029.96,794.314C1060.93,795.67 1092.18,790.111 1118.96,773.953C1124.56,770.574 1143.94,759.968 1143.04,752.352C1142.58,748.486 1137.52,744.905 1134.96,742.353C1132.82,740.221 1130.64,737.476 1127.96,736.015C1122.59,733.092 1116.77,741.553 1112.96,744.454C1100.82,753.695 1086.85,760.611 1071.96,764.117C1008.37,779.092 945.862,744.559 925.964,682.353C961.513,681.517 959.039,624.347 924.964,621.353C930.694,601.16 939.996,582.4 955.003,567.392C1000.6,521.795 1079.38,520.895 1124.96,566.353L1125.96,566.353C1130.03,562.288 1143.78,552.573 1143.04,546.354C1142.3,540.127 1129.79,532.751 1124.96,529.581C1105.65,516.897 1082.16,508.04 1058.96,506.442C1012.08,503.214 963.345,514.785 930.053,550.354C917.698,563.555 907.778,579.427 901.389,596.353C899.12,602.366 897.699,618.722 892.647,622.365C885.777,627.318 868.217,626.352 859.964,626.353C859.831,578.312 829.089,526.245 789.964,499.871C778.979,492.467 767.378,486.473 754.964,481.883C749.081,479.708 741.531,478.85 736.097,475.92C730.921,473.129 729.836,463.195 726.717,458.353C718.966,446.32 705.201,439.479 690.964,439.808C677.029,440.131 663.931,446.271 656.432,458.353C653.498,463.079 652.532,471.981 648.451,475.499C642.824,480.349 630.906,481.484 623.964,484.365C609.744,490.265 595.675,498.505 583.964,508.523C562.489,526.893 545.776,550.741 536.017,577.353C532.461,587.051 529.53,597.181 527.715,607.353C527.022,611.237 527.083,618.842 524.222,621.75C519.943,626.098 502.751,621.81 496.964,621.353M712.964,472.353L669.964,472.353C678.272,456.473 704.656,456.473 712.964,472.353M828.964,630.353C803.983,632.325 778.841,635.53 753.964,638.508C743.342,639.823 730.11,639.58 720.007,642.674C713.556,644.651 714.731,635.55 709.779,631.524C703.919,625.5 696.391,622.001 687.964,621.808C675.958,621.534 669.365,628.473 660.875,634.75C651.587,636.057 640.316,633.098 630.964,632.442C606.4,630.721 581.568,626.861 556.964,626.353C557.092,610.935 563.232,595.14 569.67,581.353C617.244,479.469 771.359,483.882 817.195,584.353C823.58,598.349 828.921,614.856 828.964,630.353M704.964,644.353C698.769,642.604 671.841,645.167 686.447,658.357C690.897,661.737 699.666,660.088 704.964,661.353C694.51,681.335 664.637,669.005 669.354,647.353C673.012,630.566 699.266,627.637 704.964,644.353M830.964,674.353L830.964,754.353L571.964,754.353C568.026,754.353 557.71,756.182 554.992,752.75C552.42,749.503 553.964,741.282 553.964,737.353L553.964,695.353C553.964,691.07 551.909,680.352 557.112,678.656C565.225,676.012 575.515,676.845 583.964,676.264C599.646,675.184 615.282,673.339 630.964,672.264C640.089,671.638 651.442,669.353 660.43,671.095C667.906,676.569 674.31,683.008 685.964,682.338C694.644,682.562 702.475,680.364 708.871,674.179C712.353,670.811 714.843,661.193 720.007,662.591C726.861,664.447 736.22,664.794 743.964,665.264C772.981,667.391 801.902,673.105 830.964,674.353M303.964,890.353L295.964,889.353C292.662,900.468 279.538,905.95 271.768,895.31C266.805,888.514 266.952,877.122 269.269,869.353C273.58,854.899 291.777,855.267 295.964,869.353L303.964,868.353C298.99,853.775 281.134,845.582 268.149,856.885C262.327,861.954 260.247,870.913 260.007,878.353C259.758,886.058 261.656,895.475 267.177,901.168C280.211,914.608 298.773,905.597 303.964,890.353M473.964,851.353L473.964,906.353L480.964,906.353C480.964,898.464 478.501,885.515 482.421,878.458C485.912,872.173 495.343,871.945 498.785,878.397C502.5,885.362 499.964,898.585 499.964,906.353L506.964,906.353C506.964,893.737 511.503,861.478 488.968,867.991C486.009,868.846 483.515,870.705 480.964,872.353L480.964,851.353L473.964,851.353M1009.96,889.353L1001.96,889.353C997.766,905.436 978.85,903.643 975.008,888.353C972.929,880.079 973.279,869.097 979.304,862.462C987.228,853.736 999.028,859.473 1001.96,869.353L1009.96,869.353C1007.21,853.921 987.807,846.088 975.148,856.153C968.467,861.466 966.304,871.206 966.304,879.353C966.303,887.772 968.116,897.275 975.007,902.82C988.14,913.388 1007.52,905.636 1009.96,889.353M1019.96,851.353C1019.96,866.916 1017.36,885.059 1020.19,900.348C1021.42,906.959 1031.57,910.358 1032.96,902.353C1026.19,899.973 1026.96,894.595 1026.96,888.353L1026.96,851.353L1019.96,851.353M1084.96,851.353L1084.96,906.353L1089.96,906.353L1090.96,900.353L1091.96,900.353C1096.07,908.674 1108.29,909.482 1114.75,903.128C1126.03,892.038 1120.49,865.07 1101.96,867.543C1097.74,868.106 1094.97,870.552 1091.96,873.353L1091.96,851.353L1084.96,851.353M414.964,852.353L414.964,860.353C420.864,860.159 421.897,858.005 421.964,852.353L414.964,852.353M621.964,852.353L621.964,906.353C631.841,906.353 643.235,908.011 651.963,902.383C664.973,893.995 666.562,867.547 653.921,857.991C645.283,851.462 632.224,852.353 621.964,852.353M628.964,900.353L628.964,858.353C635.617,858.354 643.432,858.244 648.859,862.772C658.379,870.715 657.22,890.823 646.949,897.625C641.747,901.07 634.892,900.353 628.964,900.353M323.964,867.886C301.689,873.299 309.799,912.692 333.964,906.82C355.71,901.535 348.089,862.023 323.964,867.886M464.964,895.353C457.253,893.275 454.893,904.215 446.965,901.571C435.922,897.888 435.467,878.542 445.929,874.045C453.717,870.697 457.595,880.109 464.964,880.353C460.744,862.8 435.541,863.204 432.293,881.353C431.098,888.036 431.552,896.907 436.358,902.139C445.632,912.237 460.871,907.064 464.964,895.353M517.964,879.353C528.276,878.559 536.871,865.011 541.964,882.353C534.654,884.093 525.1,881.891 519.192,887.632C513.094,893.558 515.797,904.625 523.968,906.795C531.459,908.785 536.797,905.366 541.964,900.353L541.964,906.353L547.964,906.353C547.964,897.34 551.46,878.92 545.311,871.693C537.456,862.46 518.642,866.981 517.964,879.353M566.964,872.353L566.964,868.353L559.964,868.353L559.964,906.353L566.964,906.353C566.964,898.723 564.357,885.212 567.992,878.397C571.36,872.082 580.439,872.123 583.785,878.397C587.5,885.362 584.964,898.585 584.964,906.353L591.964,906.353C591.964,897.206 594.399,883.951 591.07,875.357C586.879,864.533 574.142,866.475 566.964,872.353M679.964,874.353L678.964,874.353L678.964,868.353L671.964,868.353L671.964,906.353L678.964,906.353C678.964,892.897 674.668,874.405 692.964,874.353L692.964,867.353C686.911,867.408 682.717,868.592 679.964,874.353M732.964,895.353C723.36,895.671 715.971,908.787 708.053,895.353C706.945,893.472 706.467,891.446 705.964,889.353L719.964,889.352C723.088,889.342 729.798,890.39 732.375,888.314C736.494,884.998 732.157,875.455 729.57,872.461C722.059,863.771 706.694,866.492 701.652,876.357C700.131,879.332 699.398,883.036 699.149,886.353C698.825,890.672 699.945,895.621 702.192,899.338C709.082,910.733 731.301,910.274 732.964,895.353M740.964,895.353C744.04,907.49 766.676,913.973 771.31,899.338C776.243,883.763 755.911,888.135 750.626,880.129C746.93,874.53 755.92,871.738 759.921,873.365C764.354,875.168 765.806,878.182 770.964,878.353C769.48,865.037 747.785,862.781 743.127,875.357C737.572,890.355 758.892,886.67 764.178,893.771C768.983,900.227 757.282,903.129 752.979,901.035C748.26,898.74 746.587,895.537 740.964,895.353M785.964,895.353L778.964,895.353C782.374,906.832 805.375,914.621 809.53,899.349C813.821,883.575 794.048,888.331 788.626,880.129C784.72,874.221 794.97,871.592 798.925,873.531C802.792,875.427 804.417,878.004 808.964,878.353C808.081,865.233 784.921,862.405 781.398,875.357C776.724,892.544 800.672,885.018 803.212,895.456C805.674,905.57 788.92,901.362 785.964,895.353M819.964,879.353C828.775,878.684 842.921,864.304 843.964,883.353C839.364,883.353 834.487,882.904 829.964,883.871C827.634,884.369 825.085,885.139 823.069,886.439C806.01,897.438 833.87,918.799 842.964,900.353L843.964,900.353L843.964,906.353L849.964,906.353C849.964,897.589 853.335,879.85 848.222,872.461C840.914,861.901 821.301,867.055 819.964,879.353M868.964,890.353C863.212,892.968 862.264,896.187 865.964,901.353C854.848,907.263 860.451,917.258 870.964,919.027C877.207,920.078 886.498,920.277 891.945,916.625C903.935,908.587 894.055,898.537 883.964,897.082C878.957,896.36 873.946,896.278 868.964,895.353L868.964,893.353C882.965,890.02 893.962,892.426 893.964,874.353L899.964,873.353L899.964,867.353C890.442,868.99 880.043,865.288 870.965,868.462C859.462,872.483 860.788,883.782 868.964,890.353M940.964,895.353C931.539,895.661 922.578,909.151 915.421,895.353C914.413,893.41 914.184,891.484 913.964,889.353L941.964,888.353C941.305,883.169 940.872,876.951 937.315,872.821C923.36,856.616 906.231,874.568 907.004,890.353C907.902,908.677 937.034,914.828 940.964,895.353M351.964,868.353C355.046,877.991 357.789,887.746 360.965,897.353C362.12,900.848 363.098,906.543 367.899,906.146C374.339,905.614 377.439,884.726 378.964,879.353C381.765,885.68 382.804,901.325 388.476,905.324C392.816,908.384 395.753,903.92 396.935,900.348C400.325,890.101 404.393,879.031 405.964,868.353C394.875,868.722 394.595,888.915 390.964,897.353C388.54,888.81 386.527,868.704 375.964,868.353L367.964,897.353L366.964,897.353L358.964,868.353L351.964,868.353M414.964,868.353L414.964,906.353L421.964,906.353L421.964,868.353L414.964,868.353M1040.96,868.353C1040.96,877.554 1038.25,892.003 1042.65,900.31C1047.56,909.566 1062.49,909.663 1066.96,900.353L1067.96,900.353L1067.96,906.353L1073.96,906.353L1073.96,868.353L1066.96,868.353C1066.96,876.199 1069.46,889.264 1065.79,896.334C1062.12,903.388 1052.81,903.388 1049.14,896.334C1045.47,889.264 1047.96,876.199 1047.96,868.353L1040.96,868.353M876.965,871.737C887.195,870.149 892.202,884.808 880.96,887.005C869.131,889.317 864.676,873.645 876.965,871.737M327.965,872.777C342.922,871.374 344.107,900.177 329.964,901.915C314.818,903.777 313.617,874.122 327.965,872.777M726.964,884.353L705.964,884.353C708.904,870.344 726.134,868.399 726.964,884.353M934.964,884.353L913.964,884.353C914.791,869.245 933.618,869.514 934.964,884.353M1100.96,872.737C1116.17,870.377 1117.71,899.569 1103.96,901.993C1088.52,904.716 1087.25,874.867 1100.96,872.737M531.964,887.654C545.848,885.585 542.939,900.736 531.964,902.124C519.846,903.656 520.884,889.305 531.964,887.654M843.964,887.353C843.954,889.978 844.148,892.783 843.311,895.313C837.266,913.597 811.989,890.751 834.964,887.643C837.94,887.241 840.968,887.353 843.964,887.353M870.983,902.956C875.278,901.301 883.853,902.012 887.735,904.517C891.622,907.026 890.682,911.756 886.855,913.7C882.17,916.081 874.576,915.811 870.023,913.189C865.292,910.465 865.937,904.902 870.983,902.956Z" style="fill:white;fill-rule:nonzero;"/>
    </g>
</svg>
